<?xml version="1.0" encoding="utf-8"?>
<!-- Generator: Adobe Illustrator 26.0.0, SVG Export Plug-In . SVG Version: 6.00 Build 0)  -->
<svg version="1.1" id="Layer_1" xmlns="http://www.w3.org/2000/svg" xmlns:xlink="http://www.w3.org/1999/xlink" x="0px" y="0px"
	 viewBox="0 0 750 1080" style="enable-background:new 0 0 750 1080;" xml:space="preserve">
<style type="text/css">
	.st0{fill:#FFFFFF;}
	.st1{fill:#028C6C;}
	.st2{fill:#145A45;}
</style>
<g>
	<g>
		<path class="st0" d="M-259.32-858.59v-26.74c0-74.86-59.48-135.78-133.76-138.19c-0.02-0.04-0.04-0.08-0.06-0.11h-4.48
			c0,0,0,0,0,0c0,0,0,0-0.01,0h-40.72v0h-48.79v0v48.79v89.51v230.5c0,13.58,0,27.16,0,40.74c16.26,7.47,32.53,14.95,48.79,22.42
			c0-14.33,0-28.67,0-43c43.41,22.41,86.82,44.82,130.23,67.23v50.91h48.79C-259.32-630.55-259.32-744.57-259.32-858.59z
			 M-438.34-689.91v-192.92v-92.02h36.49c0.19,0.03,0.39,0.06,0.58,0.09c1.21-0.05,2.42-0.09,3.64-0.09h0.01
			c49.36,0,89.51,40.16,89.51,89.51v215.64c0,0,0,0,0,0v47.18C-351.52-644.98-394.93-667.44-438.34-689.91z"/>
		<path class="st0" d="M3.4-886.08v-137.56h-48.79v343.31h0.06v27.12c0,41.51-28.4,76.5-66.79,86.58
			c-0.73-47.92-25.81-89.9-63.44-114.14v-342.87h-48.79v138.29c0,0,0,0.01,0,0.01v185.03v0v50.18
			c36.7,11.17,63.49,45.33,63.49,85.64v47.95h48.79v-0.4C-46.54-527.79,3.46-584.59,3.46-653.2v-230.5
			C3.46-884.5,3.42-885.29,3.4-886.08z"/>
		<path class="st0" d="M-522.02-596.38v-57.57v-172.54v-57.96c0-76.38-61.92-138.3-138.3-138.3c-0.05,0-0.09,0-0.14,0
			c0,0,0,0-0.01,0h-40.58v0h-48.79v0v48.79v89.5c0,0,0,0.01,0,0.01v230.5c0,0,0,0,0,0.01v138.3h48.79v-118.14
			c75.94,39.2,151.88,78.4,227.81,117.6c0-18.31,0-36.63,0-54.94C-489.5-579.54-505.76-587.96-522.02-596.38z M-570.81-826.48
			v160.16v44.7c-43.41-22.47-86.82-44.93-130.23-67.4v-284.93h36.49c0.19,0.03,0.39,0.06,0.58,0.09c1.21-0.05,2.42-0.09,3.64-0.09
			h0.01c49.36,0,89.51,40.16,89.51,89.51V-826.48z"/>
		<path class="st0" d="M87.23-637.18v-385.06H38.44v359.82l0,0c0,18.51,0,37.01,0,55.52c59.67,30.71,119.35,61.42,179.02,92.14
			c0-18.36,0-36.71,0-55.07C174.05-592.27,130.64-614.73,87.23-637.18z"/>
	</g>
	<g>
		<path class="st0" d="M827.22-815.34v-22.54c0-74.11-58.3-134.6-131.54-138.13c-0.03-0.03-0.06-0.05-0.08-0.08
			c-0.07-0.03-0.15-0.06-0.22-0.09h-6.45c0,0,0,0,0,0c0,0,0,0-0.01,0H648.2v-48.79h-48.79v48.79h0v48.79h0v40.71c0,0,0,0.01,0,0.01
			v230.5c0,0,0,0,0,0.01v138.3h48.79v-136.26c0.02-0.04,0.04-0.07,0.06-0.11c-0.01-0.65-0.06-1.28-0.06-1.93v-271.23h36.49
			c0.19,0.03,0.39,0.06,0.58,0.09c1.21-0.05,2.42-0.09,3.64-0.09h0.01c49.36,0,89.51,40.16,89.51,89.51v212.37l0,0v107.1h48.79
			V-815.34L827.22-815.34z"/>
		<path class="st0" d="M976.09-516.53c62.91,0,113.91-51,113.91-113.91v-209.43l0,0v-50.18c-36.7-11.17-63.49-45.33-63.49-85.64
			v-47.95h-48.79v0.03c-0.54-0.01-1.08-0.03-1.63-0.03c-62.91,0-113.91,51-113.91,113.91v279.29
			C862.19-567.53,913.18-516.53,976.09-516.53z M910.98-909.73c0-35.91,29.21-65.12,65.12-65.12c0.55,0,1.1,0.02,1.64,0.03
			c0.3,48.45,25.51,90.96,63.47,115.41v228.96c0,35.91-29.21,65.12-65.12,65.12c-35.91,0-65.12-29.21-65.12-65.12V-909.73z"/>
		<path class="st0" d="M564.38-575.68v-368c0.02-19.07,0.04-38.14,0.06-57.22c-16.28-7.84-32.57-15.68-48.85-23.52c0,0,0,0,0,0v0
			l0,0c0,18.57,0,37.14,0,55.72v0v369.43l0,0c0,18.57,0,37.14,0,55.72c16.25,8.36,32.5,16.73,48.75,25.09
			c0.01,0.02,0.02,0.04,0.03,0.06v-0.15c0.02-19.03,0.03-38.07,0.05-57.1C564.41-575.67,564.39-575.67,564.38-575.68z"/>
		<path class="st0" d="M350.39-640.83v-385.06H301.6v359.82l0,0c0,18.51,0,37.01,0,55.52c59.67,30.71,119.35,61.42,179.02,92.14
			c0-18.36,0-36.71,0-55.07C437.21-595.92,393.8-618.37,350.39-640.83z"/>
	</g>
	<g>
		<path class="st0" d="M-640.31-331.55v-12.19c0-34.13-27.12-61.91-60.99-63.01c-0.01-0.02-0.02-0.03-0.03-0.05h-2.04c0,0,0,0,0,0
			c0,0,0,0,0,0h-18.56v0h-22.25v0l0,0v22.25l0,0v40.81v105.1v63.06h22.25v-53.87c19.79,10.22,39.59,20.44,59.38,30.65v23.21h22.25
			L-640.31-331.55L-640.31-331.55z M-721.93-254.64v-87.96v-41.96h16.64c0.09,0.01,0.18,0.03,0.27,0.04
			c0.55-0.02,1.1-0.04,1.66-0.04h0c22.5,0,40.81,18.31,40.81,40.81v98.32c0,0,0,0,0,0v21.51
			C-682.35-234.15-702.14-244.39-721.93-254.64z"/>
		<path class="st0" d="M-377.02-212.28v-26.25v-78.67v-26.43c0-34.83-28.23-63.06-63.06-63.06c-0.02,0-0.04,0-0.06,0c0,0,0,0,0,0
			h-18.5v0h-22.25v0v22.25v40.81c0,0,0,0,0,0v105.1c0,0,0,0,0,0v63.06h22.25v-53.87c34.62,17.87,69.25,35.75,103.87,53.62
			c0-8.35,0-16.7,0-25.05C-362.19-204.6-369.6-208.44-377.02-212.28z M-399.26-317.2v73.03v20.38
			c-19.79-10.24-39.59-20.49-59.38-30.73v-129.92h16.64c0.09,0.01,0.18,0.03,0.27,0.04c0.55-0.02,1.1-0.04,1.66-0.04h0
			c22.5,0,40.81,18.31,40.81,40.81V-317.2z"/>
		<path class="st0" d="M-234.87-331.55v-12.19c0-34.13-27.12-61.91-60.99-63.01c-0.01-0.02-0.02-0.03-0.03-0.05h-2.04c0,0,0,0,0,0
			c0,0,0,0,0,0h-18.56v0h-22.25v0l0,0v22.25l0,0v40.81v105.1v63.06h22.25v-53.87c19.79,10.22,39.59,20.44,59.38,30.65v23.21h22.25
			L-234.87-331.55L-234.87-331.55z M-316.5-254.64v-87.96v-41.96h16.64c0.09,0.01,0.18,0.03,0.27,0.04c0.55-0.02,1.1-0.04,1.66-0.04
			h0c22.5,0,40.81,18.31,40.81,40.81v98.32c0,0,0,0,0,0v21.51C-276.91-234.15-296.71-244.39-316.5-254.64z"/>
		<path class="st0" d="M-114.98-312.23v-10.28c0-33.79-26.58-61.37-59.98-62.98c-0.01-0.01-0.03-0.02-0.04-0.04
			c-0.03-0.01-0.07-0.03-0.1-0.04h-2.94c0,0,0,0,0,0c0,0,0,0,0,0h-18.56v-22.25h-22.25v22.25h0v22.25h0v18.56c0,0,0,0,0,0v105.1
			c0,0,0,0,0,0v63.06h22.25v-62.13c0.01-0.02,0.02-0.03,0.03-0.05c-0.01-0.29-0.03-0.59-0.03-0.88v-123.67h16.64
			c0.09,0.01,0.18,0.03,0.27,0.04c0.55-0.02,1.1-0.04,1.66-0.04h0c22.5,0,40.81,18.31,40.81,40.81v96.83l0,0v48.83h22.25V-312.23
			L-114.98-312.23z"/>
		<path class="st0" d="M-25-355.47c-33.71-17.43-67.42-34.87-101.12-52.3c0,8.21,0,16.42,0,24.62c4.17,2.17,8.33,4.33,12.5,6.5
			c0,0.07,0,0.14,0,0.21c9.23,4.75,18.45,9.5,27.68,14.25c-0.02,61.87-0.05,123.73-0.07,185.6c7.19,0,14.37,0,21.56,0
			c0.03-58.15,0.07-116.3,0.1-174.46c13.06,6.79,26.12,13.57,39.18,20.36C-25.12-338.95-25.06-347.21-25-355.47z"/>
		<path class="st0" d="M214.23-273.06L214.23-273.06c0-3.41,0-6.81,0-10.22c-27.09-14.02-54.17-28.04-81.26-42.06v-36.7
			c7.02,0,14.04,0,21.06,0c28.48,0,52.52-18.98,60.2-44.97h-23.68c-6.61,13.51-20.49,22.83-36.51,22.83c-14.4,0-28.8,0-43.2,0
			c0,2.94,0,5.89,0,8.83l0,0v38.55c0,0,0,0,0,0c0,8.42,0,16.84,0,25.25c27.09,13.95,54.17,27.91,81.26,41.86v48.43
			c-6.92,0-13.83,0-20.74,0c-28.28,0-52.19,18.7-60.04,44.41h23.81c6.72-13.2,20.43-22.27,36.22-22.27c14.3,0,28.59,0,42.89,0
			c0-1.95,0-3.89,0-5.84l0,0V-273.06z"/>
		<path class="st0" d="M-503.76-273.91L-503.76-273.91c16.03-30.92,3.95-68.98-26.97-85l-6.87-3.56c0-0.03-0.01-0.05-0.01-0.08
			c-28.69-14.85-57.39-29.71-86.08-44.56v0.02l-0.36-0.19c-0.02-0.01-0.04-0.02-0.07-0.03c0.04,0.36,0.06,0.73,0.04,1.12
			c-0.26,6.21-0.03,12.41,0.38,18.59v5.85v160.34c0.05,0.02,0.09,0.05,0.14,0.07v6.38c25.88,13.37,51.75,26.75,77.63,40.12
			c7.02-0.04,12.33-0.9,14.67-1.82c0.78-0.31,2.17-0.86,3.01-1.6c9.83-5.83,18.21-14.38,23.84-25.29l0,0
			c10.82-20.99,8.71-45.22-3.42-63.63C-506.34-269.31-504.98-271.55-503.76-273.91z M-540.02-338.65
			c9.2,5.07,15.99,13.33,19.18,23.37c3.3,10.39,2.35,21.44-2.67,31.12c-0.07,0.14-0.16,0.28-0.23,0.42
			c-2.45-1.75-5.05-3.35-7.8-4.77l-69.9-36.04v-45.75C-580.97-359.74-560.49-349.2-540.02-338.65z M-524.17-213.75
			c-3.67,7.12-9.21,12.82-15.86,16.66c-20.47-10.6-40.94-21.19-61.41-31.79v-70.63l59.7,30.78c9.69,5,16.85,13.47,20.17,23.85
			C-518.25-234.49-519.17-223.44-524.17-213.75z"/>
		<path class="st0" d="M13.17-298.77c19.89,10.24,39.79,20.48,59.68,30.72c0-8.33,0-16.66,0-24.99
			c-19.89-10.29-39.79-20.58-59.68-30.87v-46.23c27.06,14.06,54.13,28.13,81.19,42.19c0.06-8.45,0.12-16.9,0.18-25.35
			C60.05-371.13,25.56-388.97-8.92-406.8c0,2.55,0,5.09,0,7.64v17.55v46.28c0,0,0,0,0,0c0,8.4,0,16.79,0,25.19c0,0,0,0,0,0v54.11
			c-0.05-0.03-0.1-0.05-0.16-0.08c0,8.4,0,16.79,0,25.19c34.43,17.9,68.85,35.81,103.28,53.71c0.06-8.46,0.12-16.93,0.18-25.39
			c-27.07-14-54.14-28-81.21-42V-298.77z"/>
	</g>
</g>
<g>
	<path d="M-480.43,464.55H-513v-32.88h-30.39v339.16H-513l0.02-91.09c-0.02-0.26-0.02-0.55-0.02-0.82V494.91l26.31,0.07
		c0.79-0.05,1.58-0.07,2.38-0.07c33.94,0,61.54,27.63,61.54,61.57v213.99h30.39V556.48c0-49.13-38.4-89.46-87.44-91.84
		L-480.43,464.55z"/>
	<path d="M-258.11,463.61v-31.04h-32.71c-41.62,0-75.52,33.85-75.52,75.49v188.16c0,41.65,33.89,75.52,75.52,75.52
		c41.62,0,75.49-33.87,75.49-75.52v-174C-240.56,514.14-258.11,490.16-258.11,463.61 M-245.7,696.23
		c0,24.89-20.26,45.13-45.13,45.13c-24.89,0-45.13-20.24-45.13-45.13V508.07c0-24.89,20.23-45.12,45.13-45.12
		c0.38,0,0.77,0,1.15,0.02l1.2,0.05v1.2c0.19,31.13,15.96,59.82,42.2,76.72l0.58,0.36V696.23z"/>
	<polygon points="-599.84,432.77 -599.87,754 -569.48,769.65 -569.45,733.26 -569.48,733.12 -569.43,447.41 	"/>
	<polygon points="-713.66,431.04 -744.03,431.04 -744.03,708.88 -625.91,769.68 -625.91,735.38 -713.66,689.99 	"/>
	<path d="M-510.6,54.1l-3-0.1h-59.07v273.9l30.36,13.94v-29.07l90.25,46.59v33.82h30.39V145.93
		C-421.67,96.06-460.75,55.7-510.6,54.1 M-542.31,278.38V84.39l26.31,0.05c0.79-0.02,1.58-0.05,2.38-0.05
		c33.94,0,61.57,27.63,61.57,61.54v179.14L-542.31,278.38z"/>
	<path d="M-244.67,145.45V54h-30.36v228.82l0.02,1.25v18.27c0,27.97-18.89,52.45-45.92,59.55l-1.53,0.41l-0.02-1.61
		c-0.48-30.8-16.25-59.17-42.17-75.87l-0.57-0.36V54h-30.39v249.51c25.23,8.09,42.77,32.07,42.77,58.62v31.06l30.39-0.09l1.03-0.17
		c44.5-7.37,76.81-45.46,76.81-90.59v-155.3c0-0.29-0.03-0.6-0.03-0.89L-244.67,145.45z"/>
	<path d="M-598.67,146.53c0-50.69-41.26-91.93-91.96-91.93h-59.05v339.19h30.36v-80.41l153.5,79.24v-34.2l-32.86-17.02V146.53z
		 M-629.05,325.67l-90.25-46.71V84.99l26.31,0.05c0.79-0.02,1.59-0.05,2.38-0.05c33.96,0,61.57,27.6,61.57,61.54V325.67z"/>
	<polygon points="-188.19,54.96 -218.58,54.96 -218.58,332.8 -100.43,393.57 -100.43,359.27 -188.19,313.91 	"/>
	<path d="M-713.19,872.75l-1.37-0.05h-26.88v154.56h13.75v-36.7l41.26,21.29v15.41h13.73V914.56
		C-672.69,891.85-690.48,873.47-713.19,872.75 M-686.42,996.34l-41.26-21.36v-88.53l12.15,0.05c0.22-0.05,0.6-0.05,0.98-0.05
		c15.51,0,28.13,12.6,28.13,28.11V996.34z"/>
	<path d="M-495.29,914.65c0-23.09-18.79-41.86-41.86-41.86h-26.88v154.53h13.73v-36.7l69.99,36.12v-15.46l-14.98-7.78V914.65z
		 M-509.04,996.41l-41.26-21.34v-88.54h11.83c0.53,0.02,0.91,0,1.3,0c15.51,0,28.13,12.62,28.13,28.13V996.41z"/>
	<path d="M-440.01,872.75l-1.39-0.05h-26.86v154.55h13.73v-36.7l41.26,21.29v15.41h13.76V914.56
		C-399.51,891.85-417.3,873.47-440.01,872.75 M-454.53,974.98v-88.53h11.83h1.3c15.51,0,28.13,12.6,28.13,28.11v81.78
		L-454.53,974.98z"/>
	<path d="M-358.56,887.08l-0.29-0.07h-14.88v-14.98h-13.75v154.53h13.75v-125.8h11.83c0.53,0.02,0.91,0,1.3,0
		c15.51,0,28.11,12.63,28.11,28.13v97.5h13.75v-97.5C-318.74,906.52-336.24,888.13-358.56,887.08"/>
	<polygon points="-316.58,892.17 -297.93,901.77 -297.98,1026.56 -284.71,1026.56 -284.63,908.63 -258.23,922.34 -258.11,907.05 
		-325.01,872.46 -325.01,887.65 -316.58,892.02 	"/>
	<path d="M-151.68,901.62h14.81c18.05,0,34.28-11.91,39.73-29.07h-14.74c-4.75,9.36-14.5,15.38-24.99,15.38h-28.49v47.93l54.75,28.2
		v33.63h-14.59c-18.17,0-33.99,11.5-39.61,28.68H-150c4.87-9.27,14.33-15,24.8-15h28.28v-55.71l-54.75-28.32V901.62z"/>
	<path d="M-577.88,929.39c-3.38-10.66-10.71-19.35-20.64-24.51l-61.71-32l-0.29-0.12c-0.12,3.55-0.05,7.44,0.29,12.22V996.6
		l0.1,0.43v3.94l51.82,26.79c4.9-0.05,8.19-0.67,9.51-1.2c0.43-0.17,1.35-0.53,1.85-0.96c6.84-4.08,12.31-9.87,15.91-16.85
		c6.91-13.44,6.05-29.62-2.26-42.25l-0.24-0.36l0.24-0.34c1.01-1.46,1.92-2.98,2.69-4.49C-575.48,951.41-574.5,940.07-577.88,929.39
		 M-593.26,1002.44c-2.47,4.82-6.27,8.79-10.92,11.47l-0.29,0.19l-0.31-0.17l-41.72-21.6v-48.99l41.14,21.22
		c6.67,3.44,11.62,9.29,13.9,16.44C-589.19,988.15-589.81,995.76-593.26,1002.44 M-592.81,955.01l-0.45,0.77l-0.63-0.26
		c-1.66-1.18-3.41-2.26-5.18-3.17l-47.43-24.46v-32.21l42.32,21.8c6.34,3.48,11.02,9.19,13.2,16.11
		C-588.71,940.72-589.36,948.33-592.81,955.01"/>
	<polygon points="-177.7,924.19 -177.58,908.51 -246.04,873.11 -246.04,974.74 -246.16,974.66 -246.16,990.22 -177.8,1025.74 
		-177.7,1010.05 -232.4,981.74 -232.4,943.84 -192.2,964.54 -192.2,949.13 -232.4,928.32 -232.4,895.77 	"/>
</g>
<g>
	<path class="st1" d="M500.39,642.31v-83.35v-249.8v-83.92C500.39,114.65,410.74,25,300.16,25c-0.07,0-0.13,0-0.2,0
		c0,0-0.01,0-0.01,0H241.2h-70.64v70.64v129.59c0,0,0,0.01,0,0.01v333.73c0,0,0,0.01,0,0.01V759.2h70.64V588.15
		c109.94,56.76,219.89,113.51,329.83,170.27c0-26.52,0-53.03,0-79.55C547.49,666.68,523.94,654.5,500.39,642.31z M429.75,309.16
		v231.88v64.72c-62.85-32.53-125.7-65.06-188.56-97.58V95.64h52.84c0.28,0.04,0.57,0.08,0.85,0.14c1.75-0.08,3.5-0.14,5.27-0.14
		h0.01c71.46,0,129.59,58.14,129.59,129.6V309.16z"/>
	<path class="st1" d="M308.48,765.66"/>
	<g>
		<polygon class="st2" points="500.39,642.31 500.39,721.95 571.03,758.42 571.03,678.87 		"/>
		<path class="st2" d="M429.75,685.48v-79.73c-25.85,13.23-51.69,26.47-77.54,39.7C378.06,658.8,403.91,672.14,429.75,685.48z"/>
	</g>
	<g>
		<polygon class="st2" points="170.56,558.97 170.56,641.37 170.56,759.2 241.2,759.2 241.2,588.15 170.56,558.97 		"/>
		<path class="st2" d="M170.56,472.29c23.55,11.96,47.09,23.92,70.64,35.88c0-24.23,0-48.45,0-72.68
			C217.65,447.76,194.11,460.02,170.56,472.29z"/>
	</g>
</g>
<g>
	<g>
		<path d="M228.81,937.7v-9.12c0-25.54-20.3-46.33-45.64-47.15c-0.01-0.01-0.01-0.03-0.02-0.04h-1.53c0,0,0,0,0,0c0,0,0,0,0,0
			h-13.89l0,0h-16.65l0,0v16.65v30.54v78.65c0,4.63,0,9.27,0,13.9c5.55,2.55,11.1,5.1,16.65,7.65c0-4.89,0-9.78,0-14.67
			c14.81,7.65,29.62,15.29,44.43,22.94v17.37h16.65C228.81,1015.51,228.81,976.6,228.81,937.7z M167.73,995.25v-65.82v-31.39h12.45
			c0.07,0.01,0.13,0.02,0.2,0.03c0.41-0.02,0.83-0.03,1.24-0.03h0c16.84,0,30.54,13.7,30.54,30.54v73.57c0,0,0,0,0,0v16.1
			C197.36,1010.59,182.54,1002.92,167.73,995.25z"/>
		<path d="M318.45,928.32v-46.93h-16.65v117.14h0.02v9.25c0,14.16-9.69,26.1-22.79,29.54c-0.25-16.35-8.81-30.67-21.65-38.95V881.39
			h-16.65v47.18c0,0,0,0,0,0v63.13v0v17.12c12.52,3.81,21.66,15.47,21.66,29.22v16.36h16.65v-0.14
			c22.36-3.71,39.42-23.09,39.42-46.5v-78.65C318.47,928.86,318.46,928.59,318.45,928.32z"/>
		<path d="M139.18,1027.17v-19.64v-58.87v-19.78c0-26.06-21.13-47.19-47.19-47.19c-0.02,0-0.03,0-0.05,0c0,0,0,0,0,0H78.1l0,0H61.45
			l0,0v16.65v30.54c0,0,0,0,0,0v78.65c0,0,0,0,0,0v47.19H78.1v-40.31c25.91,13.38,51.82,26.75,77.73,40.13c0-6.25,0-12.5,0-18.75
			C150.28,1032.91,144.73,1030.04,139.18,1027.17z M122.53,948.66v54.64v15.25c-14.81-7.67-29.62-15.33-44.43-23v-97.22h12.45
			c0.07,0.01,0.13,0.02,0.2,0.03c0.41-0.02,0.83-0.03,1.24-0.03h0c16.84,0,30.54,13.7,30.54,30.54V948.66z"/>
		<path d="M347.05,1013.25V881.87H330.4v122.77l0,0c0,6.31,0,12.63,0,18.94c20.36,10.48,40.72,20.96,61.08,31.44
			c0-6.26,0-12.53,0-18.79C376.67,1028.57,361.86,1020.91,347.05,1013.25z"/>
	</g>
	<g>
		<path d="M599.53,952.46v-7.69c0-25.29-19.89-45.93-44.88-47.13c-0.01-0.01-0.02-0.02-0.03-0.03c-0.03-0.01-0.05-0.02-0.08-0.03
			h-2.2c0,0,0,0,0,0c0,0,0,0,0,0h-13.89v-16.65H521.8v16.65h0v16.65h0v13.89c0,0,0,0,0,0v78.65c0,0,0,0,0,0v47.19h16.65v-46.49
			c0.01-0.01,0.01-0.02,0.02-0.04c0-0.22-0.02-0.44-0.02-0.66v-92.54h12.45c0.07,0.01,0.13,0.02,0.2,0.03
			c0.41-0.02,0.83-0.03,1.24-0.03h0c16.84,0,30.54,13.7,30.54,30.54v72.46l0,0v36.54h16.65V952.46L599.53,952.46z"/>
		<path d="M650.33,1054.41c21.46,0,38.86-17.4,38.86-38.86v-71.46l0,0v-17.12c-12.52-3.81-21.66-15.47-21.66-29.22v-16.36h-16.65
			v0.01c-0.19,0-0.37-0.01-0.55-0.01c-21.46,0-38.86,17.4-38.86,38.86v95.29C611.46,1037.01,628.86,1054.41,650.33,1054.41z
			 M628.11,920.26c0-12.25,9.97-22.22,22.22-22.22c0.19,0,0.37,0.01,0.56,0.01c0.1,16.53,8.7,31.03,21.66,39.38v78.12
			c0,12.25-9.97,22.22-22.22,22.22c-12.25,0-22.22-9.97-22.22-22.22V920.26z"/>
		<path d="M509.85,1034.23V908.67c0.01-6.51,0.01-13.01,0.02-19.52c-5.56-2.67-11.11-5.35-16.67-8.03l0,0l0,0l0,0
			c0,6.34,0,12.67,0,19.01l0,0v126.05l0,0c0,6.34,0,12.67,0,19.01c5.54,2.85,11.09,5.71,16.63,8.56c0,0.01,0.01,0.01,0.01,0.02
			v-0.05c0.01-6.49,0.01-12.99,0.02-19.48C509.86,1034.23,509.86,1034.23,509.85,1034.23z"/>
		<path d="M436.84,1012V880.62h-16.65v122.77l0,0c0,6.31,0,12.63,0,18.94c20.36,10.48,40.72,20.96,61.08,31.44
			c0-6.26,0-12.53,0-18.79C466.46,1027.32,451.65,1019.66,436.84,1012z"/>
	</g>
</g>
</svg>
